<?xml version="1.0" encoding="UTF-8" standalone="no"?>
<!-- Created with Inkscape (http://www.inkscape.org/) -->

<svg
   width="512"
   height="512"
   viewBox="0 0 135.46667 135.46667"
   version="1.1"
   id="svg5"
   xmlns="http://www.w3.org/2000/svg"
   xmlns:svg="http://www.w3.org/2000/svg">
  <defs
     id="defs2" />
  <g
     id="layer1">
    <g
       id="g855"
       transform="matrix(0.81818157,0,0,1,6.9967227,-162.92644)">
      <path
         id="circle19"
         transform="matrix(0.26458333,0,0,0.26458333,0,164.70832)"
         d="M 250,0 V 5.3222656 A 250.00001,250.00001 0 0 0 50,250 250.00001,250.00001 0 0 0 250,494.93359 V 500 h 50 A 250.00001,250.00001 0 0 0 550,250 250.00001,250.00001 0 0 0 300,0 Z"
         style="fill:#ac8200;fill-opacity:1;stroke-width:1.23242" />
      <circle
         r="0"
         cy="230.85416"
         cx="79.375"
         id="path10"
         style="fill:#ac8a00;fill-opacity:1;stroke-width:0.326079" />
      <path
         id="circle12"
         d="M 132.29167,230.85417 A 66.145836,66.145836 0 0 1 66.145836,297.00001 66.145836,66.145836 0 0 1 0,230.85417 66.145836,66.145836 0 0 1 66.145836,164.70834 66.145836,66.145836 0 0 1 132.29167,230.85417 Z"
         style="fill:#e4ac00;fill-opacity:1;stroke-width:0.326079" />
      <g
         id="g1004"
         transform="matrix(0.26458333,0,0,0.26458333,-204.83377,130.6207)"
         style="fill:#ac8200;fill-opacity:1">
        <g
           id="g1002"
           transform="matrix(0.61129216,0,0,0.61129216,170.80346,315.53734)"
           style="fill:#ac8200;fill-opacity:1" />
      </g>
      <circle
         cy="230.87712"
         cx="66.187599"
         id="ellipse939"
         style="fill:#ffcc00;stroke-width:0.326079"
         r="0" />
      <path
         id="path1043"
         d="M 41.410392,171.32287 A 66.145835,66.145835 0 0 0 3.96875,230.85412 66.145835,66.145835 0 0 0 41.471887,290.38536 h 28.642695 v -6.61458 a 52.916666,52.916666 0 0 1 -3.742922,-0.13279 52.916666,52.916666 0 0 1 -5.25136,-0.63717 52.916666,52.916666 0 0 1 -5.160926,-1.15859 52.916666,52.916666 0 0 1 -5.019331,-1.66761 52.916666,52.916666 0 0 1 -4.828129,-2.16059 52.916666,52.916666 0 0 1 -4.588352,-2.63186 52.916666,52.916666 0 0 1 -4.30258,-3.07684 52.916666,52.916666 0 0 1 -3.973917,-3.49126 52.916666,52.916666 0 0 1 -3.605464,-3.87003 52.916666,52.916666 0 0 1 -3.200839,-4.21112 52.916666,52.916666 0 0 1 -2.764688,-4.50929 52.916666,52.916666 0 0 1 -2.301152,-4.76301 52.916666,52.916666 0 0 1 -1.813325,-4.96869 52.916666,52.916666 0 0 1 -1.308965,-5.12475 52.916666,52.916666 0 0 1 -0.790132,-5.23017 52.916666,52.916666 0 0 1 -0.264583,-5.28289 52.916666,52.916666 0 0 1 0.132808,-3.74344 52.916666,52.916666 0 0 1 0.63717,-5.25084 52.916666,52.916666 0 0 1 1.158586,-5.16093 52.916666,52.916666 0 0 1 1.667598,-5.01984 52.916666,52.916666 0 0 1 2.160592,-4.82762 52.916666,52.916666 0 0 1 2.631881,-4.58835 52.916666,52.916666 0 0 1 3.076813,-4.30257 52.916666,52.916666 0 0 1 3.491262,-3.97392 52.916666,52.916666 0 0 1 3.870047,-3.60547 52.916666,52.916666 0 0 1 4.211114,-3.20084 52.916666,52.916666 0 0 1 4.509283,-2.7652 52.916666,52.916666 0 0 1 4.763018,-2.30064 52.916666,52.916666 0 0 1 4.968687,-1.81384 52.916666,52.916666 0 0 1 5.124752,-1.30845 52.916666,52.916666 0 0 1 5.230172,-0.79065 52.916666,52.916666 0 0 1 5.282882,-0.26406 v -6.61459 z"
         style="display:inline;fill:#ac8200;fill-opacity:1;stroke:none;stroke-width:0.166958;stroke-opacity:1" />
      <path
         id="path1022"
         d="M 66.14583,165.36978 A 65.484375,65.48438 0 0 0 0.66145831,230.85416 65.484375,65.48438 0 0 0 66.14583,296.33853 65.484375,65.48438 0 0 0 131.63021,230.85416 65.484375,65.48438 0 0 0 66.14583,165.36978 Z m 0,13.09687 a 52.387497,52.387502 0 0 1 5.230054,0.26194 52.387497,52.387502 0 0 1 5.177869,0.78223 52.387497,52.387502 0 0 1 5.073505,1.29588 52.387497,52.387502 0 0 1 4.919,1.79518 52.387497,52.387502 0 0 1 4.715388,2.27815 52.387497,52.387502 0 0 1 4.46419,2.73704 52.387497,52.387502 0 0 1 4.169002,3.16883 52.387497,52.387502 0 0 1 3.831352,3.56941 52.387497,52.387502 0 0 1 3.45635,3.93418 52.387497,52.387502 0 0 1 3.04604,4.25956 52.387497,52.387502 0 0 1 2.60557,4.54245 52.387497,52.387502 0 0 1 2.13898,4.77986 52.387497,52.387502 0 0 1 1.65093,4.96914 52.387497,52.387502 0 0 1 1.14699,5.10931 52.387497,52.387502 0 0 1 0.6308,5.19886 52.387497,52.387502 0 0 1 0.13147,3.70549 52.387497,52.387502 0 0 1 -0.26193,5.23005 52.387497,52.387502 0 0 1 -0.78223,5.17788 52.387497,52.387502 0 0 1 -1.29587,5.0735 52.387497,52.387502 0 0 1 -1.7952,4.91951 52.387497,52.387502 0 0 1 -2.27814,4.71487 52.387497,52.387502 0 0 1 -2.73704,4.4642 52.387497,52.387502 0 0 1 -3.16883,4.169 52.387497,52.387502 0 0 1 -3.56941,3.83134 52.387497,52.387502 0 0 1 -3.934177,3.45634 52.387497,52.387502 0 0 1 -4.259554,3.04607 52.387497,52.387502 0 0 1 -4.542467,2.60555 52.387497,52.387502 0 0 1 -4.77985,2.13897 52.387497,52.387502 0 0 1 -4.969136,1.65094 52.387497,52.387502 0 0 1 -5.109316,1.147 52.387497,52.387502 0 0 1 -5.198846,0.6313 52.387497,52.387502 0 0 1 -3.705494,0.13097 52.387497,52.387502 0 0 1 -5.230054,-0.26142 52.387497,52.387502 0 0 1 -5.17787,-0.78274 52.387497,52.387502 0 0 1 -5.073505,-1.29536 52.387497,52.387502 0 0 1 -4.918999,-1.79572 52.387497,52.387502 0 0 1 -4.715388,-2.27762 52.387497,52.387502 0 0 1 -4.46419,-2.73756 52.387497,52.387502 0 0 1 -4.169002,-3.16882 52.387497,52.387502 0 0 1 -3.831346,-3.56942 52.387497,52.387502 0 0 1 -3.456349,-3.93417 52.387497,52.387502 0 0 1 -3.046047,-4.25955 52.387497,52.387502 0 0 1 -2.605561,-4.54247 52.387497,52.387502 0 0 1 -2.138986,-4.77933 52.387497,52.387502 0 0 1 -1.650923,-4.96966 52.387497,52.387502 0 0 1 -1.146999,-5.10932 52.387497,52.387502 0 0 1 -0.630798,-5.19833 52.387497,52.387502 0 0 1 -0.13148,-3.706 52.387497,52.387502 0 0 1 0.261936,-5.23006 52.387497,52.387502 0 0 1 0.782232,-5.17786 52.387497,52.387502 0 0 1 1.295874,-5.0735 52.387497,52.387502 0 0 1 1.795193,-4.91902 52.387497,52.387502 0 0 1 2.27814,-4.71539 52.387497,52.387502 0 0 1 2.737042,-4.46418 52.387497,52.387502 0 0 1 3.16883,-4.169 52.387497,52.387502 0 0 1 3.569409,-3.83135 52.387497,52.387502 0 0 1 3.934178,-3.45635 52.387497,52.387502 0 0 1 4.259554,-3.04605 52.387497,52.387502 0 0 1 4.542467,-2.60556 52.387497,52.387502 0 0 1 4.779849,-2.13899 52.387497,52.387502 0 0 1 4.969137,-1.65092 52.387497,52.387502 0 0 1 5.109316,-1.147 52.387497,52.387502 0 0 1 5.198846,-0.6308 52.387497,52.387502 0 0 1 3.705494,-0.13148 z"
         style="display:inline;fill:#ffd800;fill-opacity:1;stroke:#906c00;stroke-width:1.323;stroke-miterlimit:4;stroke-dasharray:none;stroke-opacity:1" />
    </g>
    <path
       id="path38545"
       style="opacity:0.937378;fill:#cd5c5c;fill-opacity:1;stroke:#3c486c;stroke-width:0;stroke-linecap:round;stroke-miterlimit:4;stroke-dasharray:none;stroke-opacity:0.988839;paint-order:stroke fill markers"
       d="m 91.549329,60.632597 c 0.13571,2.1e-4 0.26605,0.002 0.39067,0.003 0.51328,0.006 0.92405,0.0224 1.20716,0.0367 -0.004,0.0665 -0.014,0.15041 -0.0403,0.2589 -0.0482,0.19869 -0.14286,0.45891 -0.31316,0.78961 -0.38593,0.74945 -1.09453,1.73497 -2.23242,2.98277 -0.71112,0.7798 -1.53521,1.60181 -2.44274,2.44998 -0.79735,-1.05089 -1.82093,-1.96369 -2.92386,-2.57762 -0.41392,-0.23036 -0.43178,-0.2432 -0.40979,-0.3669 0.0132,-0.0725 0.0529,-0.29044 0.0925,-0.49093 0.0352,-0.2005 0.0882,-0.64394 0.11472,-0.99374 0.0359,-0.47284 0.0124,-0.9417 -0.0382,-1.40715 1.03452,-0.24908 2.10603,-0.41342 3.13625,-0.51831 1.29987,-0.13235 2.50924,-0.16799 3.45922,-0.1664 z" />
    <path
       id="rect38052"
       style="opacity:0.937378;fill:#cd5c5c;fill-opacity:1;stroke:#3c486c;stroke-width:0;stroke-linecap:round;stroke-miterlimit:4;stroke-dasharray:none;stroke-opacity:0.988839;paint-order:stroke fill markers"
       d="m 32.313163,61.230397 c -0.13571,2.1e-4 -0.26605,0.002 -0.39067,0.003 -0.51328,0.006 -0.92405,0.0224 -1.20716,0.0367 0.004,0.0665 0.014,0.15041 0.0403,0.2589 0.0482,0.19869 0.14286,0.45891 0.31316,0.78961 0.38593,0.74945 1.09453,1.73497 2.232416,2.98277 0.71112,0.7798 1.53521,1.60181 2.44274,2.44998 0.79735,-1.05089 1.82093,-1.96369 2.92386,-2.57762 0.41392,-0.23036 0.43178,-0.2432 0.40979,-0.3669 -0.0132,-0.0725 -0.0529,-0.29044 -0.0925,-0.49093 -0.0352,-0.2005 -0.0882,-0.64394 -0.11472,-0.99374 -0.0359,-0.47284 -0.0124,-0.9417 0.0382,-1.40715 -1.03452,-0.24908 -2.10603,-0.41342 -3.13625,-0.51831 -1.29987,-0.13235 -2.50924,-0.16799 -3.459216,-0.1664 z" />
    <path
       id="path9203"
       style="fill:#ffa006;fill-opacity:1;stroke:#613e32;stroke-width:1;stroke-miterlimit:4;stroke-dasharray:none;stroke-opacity:1"
       d="m 56.095158,34.54624 c -0.150066,0.0067 -0.320452,0.03466 -0.511079,0.08371 -2.230242,0.58016 -6.351194,3.762772 -8.039304,6.215642 -0.934421,1.35228 -1.639694,3.429574 -1.864484,5.477185 -0.097,0.917159 -0.06632,2.666256 0.07028,3.510896 0.176311,1.117661 0.493911,2.19687 0.903822,3.096969 0.110189,0.23889 0.198438,0.448154 0.198438,0.460955 0,0.01701 -0.154385,0.09366 -0.339516,0.174664 -1.48095,0.618551 -3.081126,1.548345 -4.160986,2.414323 -1.648058,1.326317 -2.740395,2.976922 -3.219442,4.749065 -1.084014,-0.257591 -2.190221,-0.425061 -3.238045,-0.531749 -1.543508,-0.15716 -2.959299,-0.182809 -3.980119,-0.170016 -1.02238,0.01286 -1.64021,0.06408 -1.64021,0.06408 -0.0327,0.0026 -0.0655,0.005 -0.0982,0.0078 -0.10427,0.0172 -0.20196,0.06171 -0.28371,0.128675 -0.0499,0.04091 -0.13204,0.121507 -0.20825,0.254765 -0.0791,0.138282 -0.14256,0.317153 -0.1664,0.54002 -0.0245,0.229214 -0.006,0.491847 0.0662,0.790133 0.0757,0.312012 0.21019,0.662649 0.41341,1.057299 0.45443,0.882464 1.24073,1.957392 2.41329,3.243212 0.7754,0.850291 1.674722,1.742662 2.660821,2.658237 -0.04502,0.07912 -0.09473,0.156707 -0.136943,0.236678 -1.511808,2.853869 -1.503132,6.202507 0.02635,9.555487 1.463331,3.212182 3.975637,5.592519 7.770584,7.36286 4.791073,2.235308 11.256873,3.302058 19.415353,3.203937 4.403211,-0.0555 7.678234,-0.294513 10.873755,-0.797883 6.74804,-1.066469 11.693433,-3.353281 14.68179,-6.800101 1.273802,-1.471731 2.084798,-3.403946 2.415358,-5.762956 0.110199,-0.784931 0.110199,-2.674437 0,-3.455087 -0.212696,-1.490954 -0.58801,-2.754689 -1.153936,-3.882451 1.080604,-0.993272 2.063195,-1.961589 2.901117,-2.880442 1.172565,-1.28582 1.958859,-2.360232 2.413288,-3.242696 0.203227,-0.394653 0.337207,-0.745803 0.412896,-1.057818 0.07236,-0.298286 0.09118,-0.560403 0.06666,-0.789617 -0.02384,-0.222866 -0.08732,-0.401735 -0.166399,-0.540017 -0.07621,-0.133258 -0.158319,-0.213855 -0.208257,-0.254765 l -0.382405,1.068668 c 0,0 -0.155313,-0.01249 -0.440282,-0.02687 -0.0037,0.06647 -0.0145,0.150405 -0.04082,0.258897 -0.0482,0.198692 -0.142859,0.45891 -0.313159,0.789618 -0.385929,0.749442 -1.09453,1.734965 -2.232421,2.982764 -0.75995,0.833347 -1.648804,1.714981 -2.630848,2.625161 -0.02784,-0.04189 -0.05264,-0.08557 -0.08113,-0.127124 -0.643512,-0.942758 -1.472288,-1.535517 -2.821017,-2.030368 -0.515691,-0.183419 -0.480039,-0.08955 -0.338997,-0.955495 0.161395,-1.002683 0.165637,-1.946788 0.01913,-2.837553 1.109832,-0.283606 2.269657,-0.466066 3.381708,-0.579294 1.485564,-0.151257 2.853272,-0.175694 3.842658,-0.163296 l 0.0078,-1.205611 c -1.020294,-0.01259 -2.432344,0.0132 -3.972367,0.170014 -1.148162,0.116906 -2.366862,0.306742 -3.549136,0.608232 -0.40531,-1.194433 -1.121,-2.283511 -2.153875,-3.274735 -1.013751,-0.972611 -2.451008,-1.915038 -4.108276,-2.704227 -0.361421,-0.170632 -0.674052,-0.32027 -0.696081,-0.32453 -0.0177,-0.008 0.04817,-0.196231 0.145211,-0.418063 0.793366,-1.774594 0.669798,-4.026505 -0.330729,-5.971727 -0.683181,-1.32669 -1.679149,-2.26095 -3.133662,-2.94349 -1.758635,-0.82332 -3.808296,-1.185899 -7.426936,-1.322398 -0.643509,-0.0213 -1.723149,-0.05967 -2.401919,-0.08527 -1.77627,-0.0682 -2.684338,-0.145368 -3.812688,-0.324528 -1.917301,-0.311412 -3.711022,-1.142963 -4.275191,-1.983343 -0.260051,-0.388188 -0.326355,-0.682733 -0.321945,-1.382344 0.004,-0.631339 -0.01733,-0.499211 0.454237,-2.623611 0.158671,-0.725199 0.215765,-1.493126 0.136425,-1.821596 -0.09256,-0.367935 -0.361125,-0.539027 -0.811319,-0.518829 z m 37.465413,26.162743 c 0.0027,-0.04913 0.0021,-0.09015 -0.0011,-0.118856 -0.0069,-0.06477 -0.01974,-0.079 -0.01447,-0.06976 0.0051,0.009 0.02482,0.03887 0.0739,0.07907 l 0.381889,-1.068671 c 0,0 -0.614852,-0.05102 -1.64021,-0.06408 l -0.0072,1.205611 c 0.513278,0.0064 0.924052,0.02238 1.207161,0.03669 z m -61.247428,0.521415 c 0.949979,-0.0016 2.159353,0.03405 3.459224,0.166399 1.030219,0.104894 2.101726,0.269227 3.136244,0.518313 -0.05063,0.46545 -0.07418,0.934308 -0.03824,1.40715 0.0265,0.3498 0.07953,0.793239 0.114723,0.993738 0.0396,0.20049 0.0793,0.418417 0.0925,0.490926 0.02199,0.123709 0.0041,0.136544 -0.409794,0.366903 -1.102921,0.613934 -2.126509,1.526733 -2.923852,2.577621 -0.907532,-0.848167 -1.731627,-1.67018 -2.442745,-2.449981 -1.13789,-1.247796 -1.84649,-2.233318 -2.23242,-2.982764 -0.1703,-0.330708 -0.26496,-0.590926 -0.31316,-0.789615 -0.0263,-0.108489 -0.0367,-0.192426 -0.0403,-0.2589 0.28311,-0.01429 0.69388,-0.03026 1.20716,-0.03669 0.12461,-0.0016 0.25496,-0.0029 0.39067,-0.0031 z" />
    <g
       transform="matrix(0.0188635,0,0,-0.01299966,-93.621237,281.51117)"
       fill="#000000"
       stroke="none"
       id="g16008"
       style="fill:#613e32;fill-opacity:1">
      <path
         d="m 8700.2053,16024.786 c -33.1603,-13.945 -66.8012,-36.606 -106.2091,-73.793 -20.6652,-19.755 -55.7478,-49.969 -77.3741,-67.401 -36.5244,-29.633 -39.8885,-33.7 -39.8885,-51.132 0,-23.241 12.4952,-38.348 31.238,-38.348 13.9369,0 49.5002,23.822 81.6993,54.618 30.7574,30.214 31.7186,29.633 18.2623,-12.202 -15.3788,-49.97 -17.3011,-125.505 -4.3253,-178.961 17.7816,-71.469 56.7089,-144.099 101.4033,-187.677 11.534,-11.621 20.1845,-22.08 19.2233,-23.242 -2.4029,-2.905 -41.3302,22.08 -63.4371,41.254 -23.5486,19.755 -39.8885,18.593 -52.8642,-5.229 -12.0147,-22.661 -3.8447,-41.254 30.7573,-69.726 58.6313,-48.226 129.2772,-66.819 211.9377,-55.199 55.2672,8.135 118.7043,26.728 135.525,40.092 6.7281,5.23 20.6647,14.526 31.2377,20.918 28.8348,17.431 75.4517,76.698 91.7919,116.79 12.9758,32.538 13.9366,39.51 13.9366,101.682 0,63.334 -0.9608,69.144 -15.3786,106.331 -8.6505,21.499 -12.9758,37.187 -9.612,34.862 3.3643,-2.324 35.0831,-27.309 70.646,-55.78 76.4134,-60.428 146.0981,-102.844 199.4431,-121.438 21.1452,-6.972 42.291,-16.269 46.6163,-20.917 15.859,-15.688 85.5443,1.162 137.4474,33.119 45.6554,28.471 73.0489,72.631 73.0489,119.114 0,34.282 -3.3644,42.997 -19.7046,52.875 -20.1843,12.783 -29.3152,11.04 -83.1407,-17.431 -67.2817,-35.444 -98.0389,-44.16 -148.0203,-42.997 -26.9124,1.162 -44.2134,-1.163 -48.5387,-5.811 -5.7672,-5.229 -12.4953,-3.486 -33.6413,8.716 -26.432,15.688 -31.2377,25.566 -12.4947,25.566 16.8201,0 61.0342,22.079 83.6213,41.254 30.758,26.728 42.7722,51.713 35.5636,71.468 -9.1309,23.823 -24.5102,25.566 -74.0097,9.878 -25.9523,-8.135 -66.8015,-8.135 -124.4718,0.581 l -47.5778,6.972 -12.4953,-18.012 -12.4954,-18.012 -30.2768,24.984 -29.7963,24.404 33.1607,3.487 c 59.5921,5.81 111.0147,45.321 111.0147,84.832 0,33.7 -21.6263,42.997 -73.5294,30.214 -35.0824,-8.716 -83.1407,-16.269 -146.0971,-23.823 -44.6947,-5.229 -56.7093,-4.648 -72.088,2.905 -68.2429,31.958 -178.2968,47.065 -220.1076,30.215 z m 169.6463,-114.466 c 4.3252,-9.296 16.8204,-21.498 27.3933,-27.309 92.272,-48.807 159.0733,-145.842 164.8405,-239.97 1.9224,-35.444 0.4804,-44.16 -10.5729,-72.05 -44.2141,-109.236 -166.2823,-140.612 -272.0108,-69.144 -78.8158,53.456 -124.9519,152.233 -118.7043,255.659 6.7282,110.979 62.9566,168.502 165.8016,169.664 34.1215,0.582 35.0826,0 43.2526,-16.85 z"
         id="path16000"
         style="fill:#613e32;fill-opacity:1;stroke-width:0.528432" />
      <path
         d="m 7671.2744,16017.813 c -16.3399,-4.648 -42.2914,-13.364 -57.6702,-19.755 -15.3786,-6.973 -38.9273,-12.202 -52.3836,-12.202 -29.3157,0 -130.2384,14.526 -182.1414,26.147 -48.5391,11.04 -53.8255,11.04 -65.3595,-2.905 -14.4176,-17.432 -12.0146,-37.768 7.6894,-63.915 18.2621,-24.404 57.1895,-45.903 85.0634,-47.065 8.6505,-0.581 20.6651,-2.324 26.9127,-4.648 10.5728,-3.486 9.6117,-5.229 -15.8593,-25.566 l -27.3933,-22.08 -14.4176,18.594 c -12.4952,16.269 -16.3398,18.012 -32.1991,14.526 -77.8546,-15.688 -105.7285,-17.431 -141.2918,-6.973 -59.1119,16.851 -62.9565,17.432 -74.4905,3.487 -16.8205,-18.594 -13.9369,-37.187 9.6117,-65.658 23.068,-27.89 45.6555,-42.416 87.4663,-56.361 l 28.835,-9.878 -26.4321,-18.012 c -20.6651,-14.526 -27.3933,-16.851 -33.1603,-11.04 -4.3253,4.067 -25.471,6.972 -55.2672,7.553 -56.7089,0.581 -74.4905,5.811 -140.8112,40.673 -27.8739,14.526 -56.2283,25.566 -66.3206,25.566 -53.3449,0 -54.7866,-90.061 -2.403,-147.585 47.0973,-51.713 142.253,-82.508 181.1803,-59.266 7.2088,4.648 29.7963,13.945 49.5002,20.917 47.5778,16.851 123.0296,63.915 198.9619,124.925 34.6021,27.309 62.9566,49.388 63.4371,49.388 0.9612,0 -3.8447,-13.945 -10.0923,-30.214 -46.136,-120.276 -11.5339,-260.888 79.2964,-322.479 12.0147,-8.134 27.8739,-19.755 35.0827,-26.147 21.6263,-18.012 100.9227,-40.092 159.554,-43.578 69.6847,-4.648 112.9373,4.648 160.0345,33.701 62.4761,37.767 81.6994,70.306 58.6314,98.196 -13.937,16.85 -31.7186,14.526 -57.6701,-8.716 -12.4953,-11.04 -31.2381,-24.404 -41.3303,-29.633 -17.7816,-8.716 -17.3011,-7.554 13.9369,26.728 56.7089,63.334 89.8693,137.126 99.4809,221.958 5.7671,51.132 0,115.047 -14.4174,154.558 -9.1312,24.404 -9.1312,25.566 -0.4807,18.012 85.0635,-76.116 96.1169,-83.67 114.3791,-77.86 14.4176,4.068 27.3933,28.472 23.5486,44.741 -1.4417,8.715 -19.2233,26.728 -47.0972,49.969 -24.5098,19.756 -59.5925,50.551 -78.3353,68.563 -18.2621,17.432 -47.5778,40.092 -64.8788,50.551 -29.3157,17.432 -34.1215,18.594 -91.3111,19.756 -37.0049,0.581 -71.1264,-2.324 -89.3886,-6.973 z m 57.6701,-95.872 c 80.7381,-15.688 128.7966,-84.251 128.7966,-183.028 -0.4806,-117.952 -70.1653,-230.093 -164.8404,-264.956 -49.9808,-18.593 -110.5344,-14.526 -153.3064,9.878 -61.0342,34.281 -86.5052,76.116 -86.5052,140.031 0,89.481 64.8789,194.068 152.8258,246.943 16.8205,9.878 34.6021,24.985 39.8886,33.12 15.3786,23.241 34.602,27.89 83.141,18.012 z"
         id="path16002"
         style="fill:#613e32;fill-opacity:1;stroke-width:0.528432" />
    </g>
    <g
       transform="matrix(0.00878035,0,0,-0.00568768,-234.02461,-196.34808)"
       fill="#000000"
       stroke="none"
       id="g16116"
       style="fill:#613e32;fill-opacity:1">
      <path
         d="m 34340.394,-48776.2 c -37.158,-5.373 -127.118,-30.138 -158.409,-43.455 -13.131,-5.607 -21.792,-14.953 -21.792,-23.597 0,-9.112 8.94,-23.363 19.557,-30.839 14.248,-9.813 27.659,-8.411 65.096,6.775 27.379,11.214 35.202,13.317 62.022,16.588 24.027,2.803 35.202,5.607 51.406,12.149 23.748,10.046 25.703,12.849 26.541,37.147 0.28,14.018 -0.558,17.523 -5.308,21.261 -7.823,6.541 -16.763,7.242 -39.113,3.971 z"
         id="path16094"
         style="fill:#613e32;fill-opacity:1;stroke-width:0.255484" />
      <path
         d="m 34351.569,-48916.846 c -92.754,-21.027 -93.872,-21.494 -103.65,-29.905 -9.499,-8.644 -13.69,-20.326 -9.499,-26.868 1.397,-2.336 6.705,-5.373 11.455,-6.775 16.204,-4.673 31.849,-3.037 63.14,7.009 27.658,8.878 32.687,9.579 62.301,10.513 40.79,1.169 68.169,4.907 73.477,9.813 11.176,10.513 8.941,29.204 -5.028,41.353 -8.102,7.242 -10.617,8.177 -22.63,7.943 -7.543,-0.233 -38.834,-6.074 -69.566,-13.083 z"
         id="path16098"
         style="fill:#613e32;fill-opacity:1;stroke-width:0.255484" />
      <path
         d="m 33596.354,-48866.374 c -111.959,-22.877 -211.478,-94.916 -267.243,-192.753 -27.024,-47.702 -33.03,-90.536 -17.587,-128.502 18.016,-43.808 56.623,-69.119 136.409,-88.102 114.533,-27.258 135.552,-36.019 142.415,-56.95 8.15,-23.85 26.596,-189.345 26.596,-238.507 0,-46.728 -1.716,-56.95 -15.872,-105.625 -24.88,-85.668 -52.762,-125.582 -105.524,-153.326 -82.789,-42.834 -185.74,-13.629 -272.819,77.393 -21.877,22.39 -46.327,43.807 -54.478,46.728 -22.735,8.761 -42.038,-3.894 -56.193,-36.993 -9.867,-23.364 -11.153,-30.665 -9.438,-60.357 3.432,-55.003 30.886,-95.403 87.079,-127.529 67.776,-39.426 140.27,-55.002 233.355,-51.108 122.682,4.867 184.882,40.4 224.346,126.555 33.03,72.039 68.205,114.873 103.808,125.581 15.443,4.868 21.019,4.381 45.47,-5.841 25.309,-10.708 36.033,-11.682 111.53,-13.142 45.898,-0.974 108.527,0.487 138.983,3.407 66.918,6.328 87.508,15.576 126.543,56.95 15.014,15.576 45.899,46.241 68.205,67.658 54.478,51.596 59.196,62.304 70.349,161.115 5.148,44.781 7.293,85.181 5.577,97.836 -3.432,26.772 -21.877,51.596 -44.183,58.897 -22.735,7.788 -66.489,7.301 -83.647,-0.973 -26.596,-12.656 -30.028,-21.904 -33.459,-87.129 -3.861,-66.198 -15.872,-127.528 -30.028,-150.406 -12.868,-20.443 -43.325,-41.373 -78.928,-54.029 -38.178,-13.629 -114.104,-14.602 -156.571,-1.947 -64.773,19.47 -116.248,62.304 -130.404,108.059 -3.431,12.655 -8.579,45.268 -11.582,72.526 -9.008,91.995 4.29,154.299 55.336,259.924 49.76,101.731 57.91,124.121 60.055,165.982 1.287,34.559 0.858,38.453 -11.153,59.87 -24.88,43.808 -96.945,72.039 -181.021,71.552 -24.88,0 -58.768,-3.407 -75.926,-6.814 z"
         id="path16100"
         style="fill:#613e32;fill-opacity:1;stroke-width:0.456942" />
      <path
         d="m 34290.944,-49097.677 c -12.293,-3.038 -24.586,-14.018 -24.586,-22.195 0,-9.346 6.985,-20.56 17.042,-27.569 8.94,-6.308 10.058,-6.542 27.659,-4.673 39.672,4.206 50.288,2.804 78.785,-9.111 28.497,-11.915 39.113,-13.317 53.921,-7.243 12.013,4.673 37.716,27.335 37.716,33.176 0,13.083 -27.659,25.933 -71.801,33.409 -32.129,5.374 -103.091,7.944 -118.736,4.206 z"
         id="path16102"
         style="fill:#613e32;fill-opacity:1;stroke-width:0.255484" />
      <path
         d="m 32901.583,-49128.049 c -47.774,-13.785 -107.282,-43.923 -133.544,-67.52 -15.645,-14.018 -24.027,-28.737 -20.674,-35.979 3.073,-6.776 15.925,-9.112 31.849,-6.542 18.998,3.271 141.088,45.792 158.13,55.137 18.998,10.513 21.233,39.25 4.191,54.67 -7.544,6.542 -17.881,6.542 -39.952,0.234 z"
         id="path16104"
         style="fill:#613e32;fill-opacity:1;stroke-width:0.255484" />
      <path
         d="m 32894.599,-49276.639 c -3.912,-0.468 -16.763,-3.505 -28.497,-6.776 -54.479,-14.952 -94.99,-52.567 -86.049,-80.136 3.911,-12.148 17.321,-25.232 28.217,-27.101 12.013,-2.336 34.923,7.71 51.685,22.429 7.544,6.541 16.205,13.083 19.278,14.485 3.352,1.402 19.836,2.57 39.113,2.804 29.056,0 35.202,0.934 45.26,5.373 19.556,8.644 24.585,21.728 15.086,39.017 -12.851,23.83 -45.259,35.278 -84.093,29.905 z"
         id="path16106"
         style="fill:#613e32;fill-opacity:1;stroke-width:0.255484" />
      <path
         d="m 32929.521,-49426.631 c -12.851,-4.906 -29.614,-17.99 -63.419,-50.231 -32.688,-30.606 -36.878,-44.624 -18.439,-59.81 24.865,-20.793 72.918,-9.579 98.9,23.363 9.779,12.149 17.043,15.654 40.231,19.859 38.834,6.775 50.289,14.485 50.289,34.11 0,13.317 -5.029,18.691 -23.748,25.466 -13.13,4.673 -52.523,11.682 -65.375,11.682 -3.911,0 -12.292,-2.103 -18.439,-4.439 z"
         id="path16108"
         style="fill:#613e32;fill-opacity:1;stroke-width:0.255484" />
    </g>
    <path
       style="opacity:0.937378;fill:#613e32;fill-opacity:1;stroke:#3c486c;stroke-width:0;stroke-linecap:round;stroke-miterlimit:4;stroke-dasharray:none;stroke-opacity:0.988839;paint-order:stroke fill markers"
       id="path40284"
       d="m 45.314039,64.804627 c 1.06768,0.26346 2.2107,0.43265 3.34672,0.5911 1.35139,0.21227 2.73965,0.33979 4.12363,0.47426 1.14337,0.11102 2.30119,0.16806 3.46137,0.19485 1.14113,0.0149 2.28279,0.0109 3.42414,0.007 1.52387,0.024 3.03932,-0.0487 4.55074,-0.14213 1.62836,-0.12853 3.23119,-0.34413 4.80862,-0.59189 1.58191,-0.27308 3.10323,-0.63161 4.61695,-0.99501 0.21079,-0.0528 0.42157,-0.10553 0.63235,-0.15828 0,0 3.03605,-1.28557 3.03605,-1.28557 v 0 c -0.21295,0.0555 -0.42591,0.11098 -0.63886,0.16646 -1.50543,0.36747 -3.01699,0.72951 -4.58565,1.01581 -1.55562,0.2635 -3.14878,0.47237 -4.75866,0.6178 -1.49861,0.0991 -3.00043,0.1941 -4.51427,0.15823 -1.1307,-0.002 -2.26153,10e-4 -3.39207,-0.0101 -1.15938,-0.017 -2.31885,-0.055 -3.46395,-0.15834 -1.37609,-0.12549 -2.75164,-0.25926 -4.09449,-0.46525 -1.09746,-0.14967 -2.21326,-0.30152 -3.23354,-0.56788 0,0 -3.31908,1.1487 -3.31908,1.1487 z" />
    <path
       style="opacity:0.937378;fill:#613e32;fill-opacity:1;stroke:#3c486c;stroke-width:0;stroke-linecap:round;stroke-miterlimit:4;stroke-dasharray:none;stroke-opacity:0.988839;paint-order:stroke fill markers"
       id="path40286"
       d="m 49.405799,53.967777 c 2.43299,0.30441 4.93168,0.44641 7.41516,0.59008 2.09358,0.1066 4.19322,0.1868 6.29545,0.22978 0.71138,0.0146 1.42314,0.0343 2.13503,0.0301 0.75959,-0.005 1.51754,-0.0376 2.2763,-0.0564 0,0 2.9221,-1.11241 2.9221,-1.11241 v 0 c -0.74759,0.0205 -1.49422,0.0554 -2.24276,0.0614 -0.70989,0.006 -1.41985,-0.0126 -2.12934,-0.0262 -2.08923,-0.0401 -4.17616,-0.11935 -6.25584,-0.22928 -2.39415,-0.15078 -4.82319,-0.28542 -7.13816,-0.65091 0,0 -3.27794,1.16393 -3.27794,1.16393 z" />
    <path
       style="opacity:0.524462;fill:#ffffff;fill-opacity:1;fill-rule:nonzero;stroke:#ffffff;stroke-width:0.067;stroke-linecap:butt;stroke-linejoin:miter;stroke-miterlimit:4;stroke-dasharray:none;stroke-opacity:1"
       d="m 51.374089,48.258837 c -10e-4,4e-4 -0.096,0.0307 -0.28033,0.095 -0.15034,0.0524 -0.37994,0.13475 -0.61527,0.22855 -0.10915,0.0435 -0.22339,0.091 -0.33294,0.14016 -0.10427,0.0467 -0.20792,0.0966 -0.3,0.14706 -0.0448,0.0246 -0.0883,0.05 -0.12859,0.0761 -0.0392,0.0254 -0.0779,0.053 -0.11292,0.0826 -0.0332,0.0282 -0.0703,0.0641 -0.10063,0.10799 -0.0154,0.0222 -0.0312,0.0496 -0.0435,0.0819 -0.0123,0.0324 -0.0216,0.0715 -0.0216,0.11569 0,0.0579 -8.4e-4,0.14162 0.0134,0.22416 0.007,0.0425 0.019,0.0876 0.0376,0.13411 0.0183,0.0457 0.0425,0.0904 0.0734,0.13409 0.0598,0.0845 0.14129,0.16003 0.2453,0.23345 0.10097,0.0713 0.22942,0.14488 0.39306,0.22574 0.0602,0.0298 0.12898,0.0524 0.19955,0.0707 0.0715,0.0185 0.15203,0.0343 0.23948,0.0481 0.1736,0.0272 0.38429,0.0477 0.62303,0.0629 0.47314,0.0302 1.06943,0.0406 1.72936,0.0392 1.30954,-0.003 2.85509,-0.0519 4.15896,-0.085 2.6351,-0.067 4.72659,-0.29263 6.34056,-0.50624 0.21321,-0.0282 0.39109,-0.0595 0.53468,-0.095 0.0726,-0.018 0.13884,-0.0376 0.19781,-0.0593 0.0587,-0.0217 0.11503,-0.0473 0.165,-0.0786 0.0494,-0.031 0.10268,-0.0738 0.14306,-0.13387 0.0209,-0.031 0.0383,-0.0668 0.0493,-0.10697 0.0111,-0.0406 0.0146,-0.0821 0.0109,-0.12299 -0.004,-0.0406 -0.014,-0.0775 -0.0276,-0.11011 -0.0136,-0.0325 -0.0306,-0.0611 -0.0483,-0.0859 -0.035,-0.049 -0.0783,-0.0905 -0.1211,-0.12542 -0.044,-0.0359 -0.0939,-0.0699 -0.14698,-0.10221 -0.61462,-0.33855 -1.35346,-0.57933 -1.94821,-0.78738 -0.5473,-0.19124 -1.00664,-0.31235 -1.51264,-0.3824 -0.54106,-0.0749 -1.12223,-0.0884 -1.82729,-0.0646 -0.77245,0.0261 -1.74226,0.1 -2.86367,0.1932 -2.00284,0.16649 -2.66252,0.22734 -4.66536,0.39382 z"
       id="path49001" />
    <path
       style="opacity:0.524462;fill:#ffffff;fill-opacity:1;fill-rule:nonzero;stroke:#ffffff;stroke-width:0.067;stroke-linecap:butt;stroke-linejoin:miter;stroke-miterlimit:4;stroke-dasharray:none;stroke-opacity:1"
       d="m 47.200519,60.987567 c 0.1736,0.0272 0.38429,0.0477 0.62303,0.0629 0.47314,0.0302 3.78222,0.97604 4.44215,0.97464 3.52968,-0.0299 4.89275,1.02463 7.78673,-1.52668 1.50536,-0.72597 -0.28372,-1.49093 -1.19144,-1.80775 -2.22686,-0.34648 -4.26001,-0.41483 -6.2036,-0.2538 -5.16187,0.67755 -7.88013,2.00694 -5.45687,2.55069 z"
       id="path51441" />
    <text
       xml:space="preserve"
       style="font-style:normal;font-weight:normal;font-size:10.5833px;line-height:1.25;font-family:sans-serif;fill:#f5deb3;fill-opacity:1;stroke:none;stroke-width:0.264583"
       x="40.036976"
       y="102.5246"
       id="text55072"><tspan
         id="tspan55070"
         style="fill:#f5deb3;stroke-width:0.264583"
         x="40.036976"
         y="102.5246">Cat Shit</tspan></text>
    <ellipse
       style="opacity:0.827789;fill:#000000;stroke:#ffffff;stroke-width:0.0458214;stroke-linecap:round;paint-order:stroke fill markers"
       id="path880"
       cx="91.205444"
       cy="21.587107"
       rx="1.6943872"
       ry="2.0217922"
       transform="rotate(42.771793)" />
    <ellipse
       style="opacity:0.863014;fill:#000000;stroke:#ffffff;stroke-width:0.0458214;stroke-linecap:round;paint-order:stroke fill markers"
       id="ellipse980"
       cx="-31.372961"
       cy="100.94587"
       rx="1.6943872"
       ry="2.0217922"
       transform="rotate(-60.099885)" />
  </g>
</svg>
