<svg data-name="Layer 1" xmlns="http://www.w3.org/2000/svg" viewBox="0 0 1037.52 320.34"><g opacity=".95" stroke="#f2f2f2" stroke-linecap="round" stroke-linejoin="round" stroke-width="7"><path fill="#333738" d="M113.31 316.84L3.5 209.93 113.31 3.5l109.8 206.43-109.8 106.91z"/><path d="M100.3 234.57L3.5 209.93m219.61 0l-95.53 24.64m-14.27 82.27L76.01 73.62h74.59l-37.29 243.22zM3.5 209.93l109.8-32.25m109.81 32.25L113.3 177.68" fill="none"/></g><path d="M377.16 233.58q-6 0-5.95-4.71v-6.2q0-4.47 5.95-4.47h70.11q-11.64-24.79-22.77-49.24t-22.5-50l-51.23 111.62q-1.54 3-5.69 3h-8.54c-2.41 0-4.14-.62-5.17-1.86a3.63 3.63 0 01-.26-4.34l55.1-119.08v.5a12.7 12.7 0 016.08-5.83 20.23 20.23 0 019.45-2.36 21.28 21.28 0 019.44 2.36q4.78 2.36 6.34 5.83v-.5q14 30 27.16 59.54t27.17 59.54a4 4 0 01-.52 4.34c-1 1.24-2.76 1.86-5.18 1.86zm223-15.42c3.62 0 5.44 1.49 5.44 4.47v6.2c0 3.14-1.82 4.71-5.44 4.71h-54.58a46.87 46.87 0 01-17.34-3 39.73 39.73 0 01-12.67-7.82 32.32 32.32 0 01-7.77-10.79 30.3 30.3 0 01-2.58-12.16v-94.48c0-3.14 1.81-4.72 5.43-4.72h7.76c4 0 6 1.58 6 4.72v91a21.72 21.72 0 001.42 7.57 21.38 21.38 0 004.4 7.07 22.2 22.2 0 007.51 5.21 25.87 25.87 0 0010.47 2zm82.79-102.21a26 26 0 00-10.48 2 22 22 0 00-7.5 5.21 20.94 20.94 0 00-4.4 7.19 22.71 22.71 0 00-1.42 7.69v58.3a21.72 21.72 0 001.42 7.57 21.22 21.22 0 004.4 7.07 22.16 22.16 0 007.5 5.21 26 26 0 0010.48 2h52q5.43 0 5.43 4.47v6.2q0 4.71-5.43 4.71h-54.59a46.85 46.85 0 01-17.33-3 39.78 39.78 0 01-12.67-7.82 32.29 32.29 0 01-7.76-10.79 30.31 30.31 0 01-2.59-12.16v-65.22a30.61 30.61 0 012.59-12 32.07 32.07 0 017.76-11 41.68 41.68 0 0112.68-7.94 45.23 45.23 0 0117.32-3.06h54.59c3.62 0 5.43 1.58 5.43 4.72v6.2c0 3-1.81 4.46-5.43 4.46zm129.09 117.63q-19.39 0-27.55-8.06t-8.13-20.75v-75.19q0-12.66 8.15-20.84t27.79-8.16h33.12q19.65 0 27.81 8.19t8.13 20.81v75.17q0 12.65-8 20.71t-27.68 8.12zm31.05-15.38q11.89 0 15.39-3.84t3.49-13v-68.29a18.73 18.73 0 00-4-12.15q-4-5-15.4-5h-27.42a30 30 0 00-9.83 1.37 15.61 15.61 0 00-6.08 3.6 11.34 11.34 0 00-3 5.33 28.47 28.47 0 00-.77 6.82v68.22a33.66 33.66 0 00.77 7.69 10.69 10.69 0 003 5.34 12.46 12.46 0 006.08 3 46.08 46.08 0 009.83.87zm177.73 15.38a5.93 5.93 0 01-2.72-.74 9.71 9.71 0 01-2.2-1.49l-47.34-63.77q-2.07-2.48-.39-4.71t5.3-2.23h7q11.39 0 18.75-6.33a20.17 20.17 0 007.38-16q0-11.16-7.38-16.74t-18.75-5.59h-55.88c-3.62 0-5.44-1.48-5.44-4.46v-6.2c0-3.14 1.82-4.72 5.44-4.72h55.88a60.51 60.51 0 0118.75 2.73 44 44 0 0114.36 7.57 32.55 32.55 0 019.19 11.91 36.9 36.9 0 013.23 15.5 28.17 28.17 0 01-2.59 12 43 43 0 01-6.72 10.3 46 46 0 01-9.45 8.18 52 52 0 01-10.73 5.46l39.85 52.33q2.07 2.48.52 4.71c-1 1.49-2.76 2.23-5.18 2.23zm-88.46-103.24c4 0 6 1.58 6 4.72v93.77c0 3.14-2 4.71-6 4.71h-7.76c-3.62 0-5.44-1.57-5.44-4.71v-93.77c0-3.14 1.82-4.72 5.44-4.72z" fill="#bdc2c6"/></svg>