<svg width="60" height="60" fill="none" xmlns="http://www.w3.org/2000/svg"><path d="M0 19.2C0 12.48 0 9.12 1.308 6.552a12 12 0 015.244-5.244C9.12 0 12.48 0 19.2 0h21.6c6.72 0 10.08 0 12.648 1.308a12 12 0 015.244 5.244C60 9.12 60 12.48 60 19.2v21.6c0 6.72 0 10.08-1.308 12.648a12 12 0 01-5.244 5.244C50.88 60 47.52 60 40.8 60H19.2c-6.72 0-10.08 0-12.648-1.308a12 12 0 01-5.244-5.244C0 50.88 0 47.52 0 40.8V19.2z" fill="#fff"/><circle cx="30" cy="30" r="23" fill="#161617"/><path fill-rule="evenodd" clip-rule="evenodd" d="M37.782 23.912C39.056 23.588 40 22.407 40 21c0-1.657-1.309-3-2.923-3s-2.923 1.343-2.923 3c0 1.387.917 2.554 2.162 2.897C36 27.322 33.19 30 29.77 30h-5.115v-6.095c1.26-.332 2.192-1.507 2.192-2.905 0-1.657-1.309-3-2.923-3S21 19.343 21 21c0 1.398.932 2.573 2.192 2.905V36h.731C22.31 36 21 37.343 21 39s1.309 3 2.923 3 2.923-1.343 2.923-3-1.309-3-2.923-3h.73v-4.5h5.116c4.223 0 7.685-3.341 8.013-7.588zM38.54 21c0 .828-.655 1.5-1.462 1.5-.807 0-1.462-.672-1.462-1.5s.655-1.5 1.462-1.5c.807 0 1.462.672 1.462 1.5zm-14.616 1.5c.807 0 1.462-.672 1.462-1.5s-.655-1.5-1.462-1.5c-.807 0-1.461.672-1.461 1.5s.654 1.5 1.461 1.5zM25.385 39c0 .828-.655 1.5-1.462 1.5-.807 0-1.461-.672-1.461-1.5s.654-1.5 1.461-1.5 1.462.672 1.462 1.5z" fill="#fff"/></svg>