<svg width="48" height="48" fill="none" xmlns="http://www.w3.org/2000/svg"><path d="M24 0C10.747 0 0 11.017 0 24.608c0 10.872 6.877 20.096 16.413 23.35 1.2.227 1.64-.534 1.64-1.184 0-.587-.023-2.525-.033-4.581-6.677 1.488-8.086-2.904-8.086-2.904-1.092-2.844-2.665-3.6-2.665-3.6-2.177-1.528.165-1.496.165-1.496 2.41.173 3.679 2.535 3.679 2.535 2.14 3.762 5.614 2.675 6.984 2.046.215-1.59.837-2.676 1.523-3.29-5.33-.623-10.934-2.733-10.934-12.162 0-2.686.937-4.881 2.473-6.605-.25-.62-1.071-3.122.232-6.512 0 0 2.016-.661 6.602 2.523 1.914-.546 3.968-.82 6.007-.828 2.04.009 4.095.282 6.013.828 4.58-3.184 6.593-2.523 6.593-2.523 1.306 3.39.484 5.893.235 6.512 1.54 1.724 2.47 3.919 2.47 6.605 0 9.452-5.614 11.533-10.959 12.142.861.764 1.628 2.261 1.628 4.557 0 3.292-.027 5.942-.027 6.753 0 .655.432 1.422 1.648 1.18C41.132 44.697 48 35.476 48 24.608 48 11.017 37.255 0 24 0z" fill="#161514"/><path d="M9.16 35.163c-.052.121-.24.158-.41.074-.173-.08-.271-.244-.215-.366.052-.124.24-.159.413-.075.174.08.273.246.213.367zm.971 1.101c-.114.107-.337.057-.489-.113-.157-.17-.186-.397-.07-.506.118-.108.334-.058.492.112.156.172.187.398.067.507zm.945 1.402c-.147.103-.387.006-.535-.21-.147-.217-.147-.477.003-.581.149-.104.385-.01.535.204.147.22.147.48-.003.587zm1.294 1.357c-.131.147-.411.108-.616-.093-.21-.197-.268-.476-.136-.623.133-.148.414-.106.62.093.208.196.272.477.132.623zm1.785.787c-.058.19-.327.277-.599.196-.27-.084-.448-.307-.393-.5.056-.192.327-.282.6-.196.27.084.448.305.392.5zm1.96.145c.007.201-.223.368-.508.371-.286.007-.518-.156-.521-.353 0-.203.225-.368.511-.373.285-.006.518.155.518.355zm1.825-.315c.034.196-.164.397-.447.451-.278.052-.536-.07-.57-.264-.035-.2.166-.402.444-.454.283-.05.537.068.573.267z" fill="#161514"/></svg>