<svg width="32" height="32" fill="none" xmlns="http://www.w3.org/2000/svg"><path d="M27 6H5a1 1 0 00-1 1v18a1 1 0 001 1h22a1 1 0 001-1V7a1 1 0 00-1-1z" stroke="#66C167" stroke-width="3" stroke-linecap="round" stroke-linejoin="round"/><path d="M4 21l6.293-6.293a.998.998 0 011.414 0l5.586 5.586a.998.998 0 001.414 0l2.586-2.586a.998.998 0 011.414 0L28 23" stroke="#66C167" stroke-width="3" stroke-linecap="round" stroke-linejoin="round"/><path d="M19.5 14.5a2 2 0 100-4 2 2 0 000 4z" fill="#66C167"/></svg>