<svg width="100" height="100" xmlns="http://www.w3.org/2000/svg"><defs><linearGradient x1="93.691%" y1="0%" x2="-10.219%" y2="104.124%" id="a"><stop stop-color="#7D4997" offset="0%"/><stop stop-color="#DC2430" offset="100%"/></linearGradient></defs><path d="M13 66.57L45 87 23.435 18 13 66.57zm17-47.546L50.496 84 71 19 52.538 40.54a2.708 2.708 0 01-4.125-.002L30 19.024zM56 87l32-20.43L77.565 18 56 87zm36.936-19.975a2.8 2.8 0 01-1.22 2.952l-40.249 25.59A2.67 2.67 0 0150 96a2.67 2.67 0 01-1.467-.433l-40.25-25.59a2.8 2.8 0 01-1.22-2.952L20.178 6.236c.321-1.208 1.07-1.88 1.933-2.129a2.7 2.7 0 01.384-.081 2.657 2.657 0 012.276.773c.066.067.13.137.19.21L49.98 34.395 75.042 5.008c.06-.074.123-.144.19-.21 1.465-1.479 3.988-.807 4.542 1.232.013.045 4.4 20.377 13.162 60.995z" stroke="url(#a)" fill="url(#a)" fill-rule="evenodd"/></svg>