<svg width="110" height="34" fill="none" xmlns="http://www.w3.org/2000/svg"><g clip-path="url(#clip0)" fill="#fff"><path d="M46.06 18.998H32.527c.203 3.459 2.633 5.732 5.964 5.732 2.334 0 4.333-.96 5.267-2.56l1.934 1.183c-1.233 2.15-3.967 3.492-7.268 3.492-4.574 0-8.267-3.492-8.267-8.199a7.783 7.783 0 01.612-3.079 7.94 7.94 0 011.784-2.609 8.162 8.162 0 012.68-1.732 8.323 8.323 0 013.158-.585c4.367 0 7.735 3.234 7.735 7.397 0 .288-.034.641-.068.96h.004zm-2.435-1.818c-.2-2.657-2.435-4.578-5.335-4.578-2.867 0-5.068 1.857-5.635 4.578h10.97zm22.207 1.562c0 4.58-3.7 8.1-8.402 8.1-4.701 0-8.367-3.52-8.367-8.1s3.666-8.101 8.367-8.101c4.702 0 8.402 3.523 8.402 8.1zm-14.369 0c0 3.306 2.6 5.892 5.967 5.892a6.087 6.087 0 002.312-.438A5.97 5.97 0 0061.7 22.92c.559-.549 1-1.201 1.297-1.919a5.69 5.69 0 00.434-2.258c0-3.33-2.633-5.891-6-5.891-3.369 0-5.968 2.561-5.968 5.89zm17.503 5.86l1.101-1.76c1.266 1.217 3.5 2.048 5.4 2.048 2.234 0 3.667-1.09 3.667-2.53 0-4.033-9.7-1.377-9.7-7.173 0-2.721 2.4-4.546 5.929-4.546 2.202 0 4.434.704 5.7 2.017l-1.133 1.76c-1.1-1.157-3.202-1.818-4.769-1.818-1.999 0-3.3.96-3.3 2.435 0 3.682 9.736 1.248 9.736 7.274 0 2.626-2.468 4.549-6.098 4.549-2.433 0-5-.898-6.535-2.242M89.382 5.838c-.012.45-.202.878-.53 1.194-.33.316-.77.496-1.232.502a1.76 1.76 0 01-1.253-.473 1.681 1.681 0 01-.387-.552 1.645 1.645 0 010-1.311c.09-.208.221-.395.387-.552a1.76 1.76 0 011.253-.473c.934 0 1.767.768 1.767 1.665h-.005zm-.562 5.125v15.56h-2.438V13.31h-1.733v-2.349l4.17.002zm20.687 7.779c0 4.58-3.702 8.1-8.401 8.1-4.7 0-8.368-3.52-8.368-8.1s3.666-8.101 8.368-8.101c4.701 0 8.401 3.523 8.401 8.1zm-14.37 0c0 3.306 2.6 5.892 5.969 5.892a6.088 6.088 0 002.311-.439 5.97 5.97 0 001.956-1.277A5.809 5.809 0 00106.669 21a5.706 5.706 0 00.434-2.258c0-3.33-2.633-5.891-6.001-5.891-3.368 0-5.968 2.561-5.968 5.89M18.656 13.66l2.61 11.987-8.506 4.905 5.896-16.893zM5.284 10.932l6.285-8.228 6.282 8.228L11.57 28.94 5.284 10.933zM1.872 25.647l2.61-11.99 5.895 16.895-8.505-4.905zm17.831-14.99L11.571 0 3.44 10.657 0 26.434l11.57 6.673 11.567-6.673-3.434-15.777z"/></g><defs><clipPath id="clip0"><path fill="#fff" d="M0 0h110v33.107H0z"/></clipPath></defs></svg>