<svg width="110" height="25" fill="none" xmlns="http://www.w3.org/2000/svg"><path d="M25.757 10.395a6.43 6.43 0 00-5.261 2.64 9.42 9.42 0 00-2.109 6.122 5.715 5.715 0 001.32 3.942 4.361 4.361 0 003.52 1.485c1.98 0 3.85-.917 5.06-2.493a9.739 9.739 0 002.273-6.398 6.243 6.243 0 00-1.118-3.85c-.788-.954-2.035-1.448-3.685-1.448zm.092 10.522A3.63 3.63 0 0123.319 22a1.92 1.92 0 01-1.65-.752 3.119 3.119 0 01-.587-2.071 7.352 7.352 0 011.284-4.437 3.825 3.825 0 013.281-1.778c1.485 0 2.237.917 2.237 2.732 0 1.943-.715 3.813-2.035 5.224zm80.149-3.978a1.265 1.265 0 00-1.576.697c-1.155 2.896-2.567 4.345-4.309 4.345-.916 0-1.374-.789-1.374-2.274.11-1.686.366-3.355.733-5.004l.366-1.742h3.557c.605 0 1.137-.44 1.247-1.045a1.267 1.267 0 00-.99-1.503c-.074-.018-.165-.018-.239-.018h-2.951l.586-2.897a1.364 1.364 0 00-1.026-1.595c-.092-.018-.165-.037-.257-.037-.623-.018-1.155.422-1.283 1.045l-.77 3.428h-8.286a6.366 6.366 0 00-5.262 2.677 9.42 9.42 0 00-2.108 6.123c0 .605.073 1.192.202 1.778-.532.642-1.32 1.009-2.164 1.045a1.307 1.307 0 01-1.118-.458 2.643 2.643 0 01-.33-1.485c.055-1.485.257-2.97.587-4.436l2.145-10.01a1.308 1.308 0 00-.99-1.577 1.308 1.308 0 00-1.577.99l-1.247 6.124a5.596 5.596 0 00-2.896-.789 6.85 6.85 0 00-5.39 2.493 9.463 9.463 0 00-2.145 6.288 7.049 7.049 0 00.294 2.145 2.805 2.805 0 01-1.815.697c-.44.037-.88-.128-1.192-.458A2.259 2.259 0 0164.053 20c.037-.99.184-1.98.422-2.952a1.355 1.355 0 00-1.081-1.595c-.037 0-.074-.018-.11-.018-.66-.092-1.284.348-1.449.99a11.689 11.689 0 01-1.815 3.941 3.533 3.533 0 01-2.731 1.614 1.697 1.697 0 01-1.412-.825 4.18 4.18 0 01-.55-2.2 6.82 6.82 0 011.284-4.345 4.051 4.051 0 013.391-1.742c.678 0 1.357.147 1.998.422.385.183.825.147 1.192-.092a1.284 1.284 0 00.44-1.76 1.311 1.311 0 00-.605-.531 5.15 5.15 0 00-1.027-.33 7.792 7.792 0 00-1.943-.293 6.914 6.914 0 00-5.335 2.493 8.133 8.133 0 00-1.705 3.061c-1.283 4.088-2.933 6.068-4.931 6.068a1.706 1.706 0 01-1.485-.66 2.553 2.553 0 01-.458-1.613 1.7 1.7 0 01.036-.532 7.017 7.017 0 003.025-2.273 5.69 5.69 0 001.192-3.391c0-2.072-1.118-3.117-3.392-3.117a5.967 5.967 0 00-4.216 1.742L44.2 5.555a1.301 1.301 0 00-1.009-1.54c-.091-.019-.183-.037-.275-.019-.623-.018-1.155.422-1.283 1.045l-3.85 17.966a1.297 1.297 0 001.008 1.54c.092.018.184.037.275.037.605-.018 1.137-.459 1.229-1.064l1.191-5.5c.202-.732.477-1.447.825-2.107a6.436 6.436 0 011.742-1.98 3.87 3.87 0 012.603-.954.87.87 0 01.99.734.607.607 0 010 .256 3.022 3.022 0 01-1.247 2.2 5.283 5.283 0 01-2.694 1.284 16.412 16.412 0 00-.129 1.704 6.585 6.585 0 001.155 3.997 3.849 3.849 0 003.318 1.448 5.797 5.797 0 004.51-2.236l.495-.587c.183.477.458.935.788 1.32a4.05 4.05 0 003.319 1.485c1.778 0 3.281-.825 4.51-2.567.531 1.742 1.778 2.567 3.85 2.567a5.12 5.12 0 003.17-1.174 4.135 4.135 0 002.952 1.119c1.778 0 3.263-.825 4.51-2.567.532 1.742 1.778 2.567 3.85 2.567a5.126 5.126 0 003.556-1.375 4.455 4.455 0 003.355 1.375c1.98 0 3.85-.917 5.06-2.493a9.888 9.888 0 002.273-6.38 7.12 7.12 0 00-.495-2.768H97.2l-.33 1.485a31.754 31.754 0 00-.825 5.261c0 3.226 1.32 4.877 3.923 4.877 2.951 0 5.17-1.999 6.746-5.922.275-.586 0-1.301-.587-1.576a1.018 1.018 0 00-.128-.074zM76.63 15.363c-.459 2.273-1.192 3.941-2.035 5.023-.844 1.081-1.815 1.613-2.805 1.613a1.697 1.697 0 01-1.412-.825c-.366-.66-.568-1.393-.531-2.145a6.93 6.93 0 011.283-4.345c1.155-1.778 3.538-2.273 5.316-1.118.165.11.33.238.495.385l-.311 1.412zm14.427 3.116a11.938 11.938 0 01-1.485 2.402 3.59 3.59 0 01-2.53 1.118 1.94 1.94 0 01-1.65-.752 3.118 3.118 0 01-.586-2.071 7.352 7.352 0 011.283-4.437 3.867 3.867 0 013.282-1.778c1.485 0 2.236.917 2.236 2.732a8.85 8.85 0 01-.55 2.768v.018zm-54.08-14.5c-.624-.02-1.155.42-1.284 1.044l-3.85 17.966a1.297 1.297 0 001.009 1.54c.091.018.183.037.275.037.623.018 1.155-.422 1.283-1.046l3.85-17.965a1.345 1.345 0 00-1.045-1.559c-.074 0-.147-.018-.239-.018zM9.44 0A9.475 9.475 0 00.495 12.503a1.337 1.337 0 001.65.825c.66-.257 1.027-.972.807-1.65a6.332 6.332 0 01-.367-2.402 6.802 6.802 0 017.003-6.6 6.802 6.802 0 016.6 7.004 6.825 6.825 0 01-6.398 6.6s-1.32.09-1.98.164c-.239.037-.477.073-.715.147-.037.037-.092.018-.129-.018a.117.117 0 010-.11l.202-1.119 1.247-5.628a1.298 1.298 0 00-.99-1.54 1.298 1.298 0 00-1.54.99s-2.952 13.75-2.952 13.878a1.25 1.25 0 00.917 1.521c.018 0 .055.019.073.019a1.262 1.262 0 001.522-.935c0-.018.018-.037.018-.055.037-.165.422-1.998.422-1.998a3.357 3.357 0 012.768-2.64 64.571 64.571 0 011.485-.129c5.188-.476 9.001-5.078 8.524-10.266A9.424 9.424 0 009.442 0z" fill="#F2F2F2"/><path d="M108.748 21.742a1.601 1.601 0 00-1.87 1.228 1.554 1.554 0 001.192 1.852h.036c.825.183 1.65-.33 1.852-1.155 0-.037.018-.055.018-.092.147-.825-.403-1.631-1.228-1.833z" fill="#E6007A"/></svg>