<svg width="300" height="28" fill="none" xmlns="http://www.w3.org/2000/svg"><g clip-path="url(#clip0)" fill="#F0B90B"><path d="M10.49 13.552l-3.06 3.06-3.061-3.06 3.06-3.06 3.06 3.06zm7.43-7.432l5.246 5.247 3.06-3.06L17.922 0 9.615 8.306l3.06 3.06 5.246-5.246zm10.492 4.372l-3.06 3.06 3.06 3.06 3.06-3.06-3.06-3.06zM17.921 20.984l-5.246-5.246-3.06 3.06 8.306 8.307 8.307-8.306-3.06-3.06-5.247 5.245zm0-4.371l3.06-3.06-3.06-3.06-3.06 3.06 3.06 3.06zm32.307.294v-.042c0-1.996-1.061-2.994-2.781-3.652 1.061-.595 1.953-1.53 1.953-3.207v-.042c0-2.336-1.868-3.844-4.905-3.844h-6.9v14.864h7.07c3.355 0 5.563-1.359 5.563-4.077zm-4.077-6.349c0 1.104-.913 1.572-2.357 1.572H40.78V8.987h3.228c1.38 0 2.144.552 2.144 1.529v.042zm.828 5.946c0 1.104-.87 1.614-2.314 1.614h-3.886v-3.27h3.78c1.677 0 2.42.615 2.42 1.613v.043zm10.107 4.48V6.12h-3.27v14.864h3.27zm17.578 0V6.12h-3.228v9.152L64.471 6.12h-3.015v14.864h3.228v-9.449l7.198 9.45h2.782zm18.114 0l-6.37-14.97h-3.016l-6.37 14.97h3.334l1.359-3.333H88l1.359 3.333h3.419zm-5.946-6.221h-3.95l1.975-4.82 1.975 4.82zm21.533 6.221V6.12h-3.228v9.152L98.172 6.12h-3.015v14.864h3.228v-9.449l7.198 9.45h2.782zm16.882-2.4l-2.081-2.101c-1.168 1.061-2.208 1.74-3.907 1.74-2.548 0-4.311-2.122-4.311-4.67v-.043c0-2.548 1.805-4.63 4.311-4.63 1.486 0 2.654.638 3.801 1.678l2.081-2.4c-1.38-1.358-3.058-2.293-5.861-2.293-4.565 0-7.75 3.462-7.75 7.687v.043c0 4.268 3.248 7.644 7.623 7.644 2.866 0 4.565-1.019 6.094-2.654zm13.952 2.4v-2.909h-8.069v-3.121h7.007v-2.91h-7.007V9.03h7.962V6.12h-11.211v14.864h11.318zm11.276-10.965c0-.996.89-1.78 2.415-1.78 1.356 0 2.691.53 4.026 1.525l1.398-1.97c-1.504-1.208-3.22-1.864-5.382-1.864-2.944 0-5.063 1.737-5.063 4.322 0 2.754 1.78 3.686 4.936 4.449 2.755.635 3.348 1.207 3.348 2.288 0 1.144-1.017 1.885-2.627 1.885-1.844 0-3.263-.699-4.682-1.927l-1.568 1.864c1.779 1.589 3.919 2.373 6.186 2.373 3.114 0 5.297-1.653 5.297-4.45 0-2.478-1.632-3.601-4.767-4.364-2.839-.678-3.517-1.186-3.517-2.351zm22.894.321v10.635h2.606V6.145H173.2l-4.513 7.012-4.512-7.012h-2.776v14.83h2.564V10.382l4.64 6.949h.084l4.682-6.992zm13.669-4.3h-2.415l-6.525 14.935h2.669l1.526-3.58h7.012l1.504 3.58h2.755L187.038 6.04zm1.314 9.046h-5.106l2.542-5.933 2.564 5.933zm19.916 5.889l-4.005-5.615c2.077-.571 3.539-2.054 3.539-4.512 0-2.903-2.098-4.703-5.509-4.703h-6.61v14.83h2.606v-5.17h3.263l3.644 5.17h3.072zm-3.115-9.979c0 1.526-1.186 2.5-3.05 2.5h-3.814V8.517h3.792c1.928 0 3.072.848 3.072 2.48zm11.625-2.436h4.704V6.145h-12.034V8.56h4.704v12.415h2.626V8.56zm25.238 10.04l-1.674-1.695c-1.271 1.187-2.436 1.928-4.258 1.928-2.839 0-4.894-2.372-4.894-5.296 0-2.924 2.055-5.254 4.894-5.254 1.695 0 2.966.741 4.153 1.843l1.673-1.928c-1.419-1.356-3.072-2.31-5.805-2.31-4.491 0-7.648 3.454-7.648 7.691 0 4.28 3.22 7.648 7.542 7.648 2.776 0 4.471-1.016 6.017-2.627zm11.998-3.875v6.25h2.606V6.145h-2.606v6.165h-7.076V6.145h-2.606v14.83h2.606v-6.25h7.076zm13.66-8.685h-2.415l-6.525 14.935h2.669l1.525-3.58h7.014l1.504 3.58h2.753L267.674 6.04zm1.314 9.046h-5.106l2.542-5.933 2.564 5.933zm7.478-8.941v14.83h2.608V6.145h-2.608zm16.514 10.254l-7.946-10.254h-2.414v14.83h2.563v-10.55l8.179 10.55h2.182V6.145h-2.564v10.254z"/></g><defs><clipPath id="clip0"><path fill="#fff" d="M0 0h300v27.273H0z"/></clipPath></defs></svg>