<svg width="60" height="60" fill="none" xmlns="http://www.w3.org/2000/svg"><path d="M0 19.2C0 12.48 0 9.12 1.308 6.552a12 12 0 015.244-5.244C9.12 0 12.48 0 19.2 0h21.6c6.72 0 10.08 0 12.648 1.308a12 12 0 015.244 5.244C60 9.12 60 12.48 60 19.2v21.6c0 6.72 0 10.08-1.308 12.648a12 12 0 01-5.244 5.244C50.88 60 47.52 60 40.8 60H19.2c-6.72 0-10.08 0-12.648-1.308a12 12 0 01-5.244-5.244C0 50.88 0 47.52 0 40.8V19.2z" fill="#fff"/><path d="M30 54c13.255 0 24-10.745 24-24S43.255 6 30 6 6 16.745 6 30s10.745 24 24 24z" fill="url(#paint0_linear_338_1690)"/><path d="M14.938 31.174c2.806-1.545 5.938-2.835 8.864-4.132 5.034-2.123 10.088-4.21 15.193-6.152.994-.331 2.778-.655 2.953.817-.095 2.084-.49 4.155-.76 6.226-.686 4.556-1.48 9.095-2.253 13.636-.267 1.512-2.161 2.295-3.373 1.327-2.913-1.968-5.849-3.916-8.725-5.93-.942-.957-.069-2.332.773-3.016 2.4-2.364 4.944-4.373 7.218-6.86.613-1.481-1.2-.233-1.797.15-3.285 2.263-6.49 4.665-9.952 6.655-1.77.973-3.831.141-5.6-.402-1.585-.657-3.908-1.318-2.54-2.319z" fill="#fff"/><defs><linearGradient id="paint0_linear_338_1690" x1="24.003" y1="8.002" x2="12.003" y2="36" gradientUnits="userSpaceOnUse"><stop stop-color="#37AEE2"/><stop offset="1" stop-color="#1E96C8"/></linearGradient></defs></svg>