<svg width="97" height="56" xmlns="http://www.w3.org/2000/svg"><path fill="none" d="M-1-1h99v58H-1z"/><defs><clipPath clipPathUnits="userSpaceOnUse" id="a"><path clip-rule="evenodd" d="M14534.008 6282.093l-143.7-120.109 147.54-123.785 291.17 243.894h-295.01z"/></clipPath><clipPath clipPathUnits="userSpaceOnUse" id="b"><path d="M11332.408 5261.77h4000v1419.998h-4000V5261.77z"/></clipPath><clipPath clipPathUnits="userSpaceOnUse" id="c"><path d="M11832.408 5493.308h3153v978h-3153v-978z"/></clipPath><clipPath clipPathUnits="userSpaceOnUse" id="d"><path clip-rule="evenodd" d="M13596.878 6471.77l580.31-489.075-184-154.383-380.77 453.79h-248.01l-663.762-788.79h247.742l540.02 641.535 155.85-185.726h-203.37l-103.78-123.73h410.95l119.5-142.395h247.55l-.02.023 209.62 175.906 209.68-175.929h294.99l-937.69 788.773h-294.81z"/></clipPath><clipPath clipPathUnits="userSpaceOnUse" id="e"><path d="M11332.408 5261.77h4000v1419.998h-4000V5261.77z"/></clipPath><clipPath clipPathUnits="userSpaceOnUse" id="f"><path clip-rule="evenodd" d="M12878.678 6282.093l-149.059-409.547-149.047 409.547h-247.512l-149.422-410.543-149.429 410.543h-201.8l218.046-599.097h266.367l140.004 384.652 140.012-384.652h265.6l218.07 599.097h-201.83z"/></clipPath><clipPath clipPathUnits="userSpaceOnUse" id="g"><path d="M11332.408 5261.77h4000v1419.998h-4000V5261.77z"/></clipPath></defs><g stroke="null"><g clip-path="url(#a)" transform="matrix(.03277 0 0 -.03277 -387.554 226.468)"><g clip-path="url(#b)"><path fill="#f57f15" d="M14340.308 6332.093h538.71v-343.89h-538.71v343.89"/></g></g><g clip-path="url(#c)" transform="matrix(.03277 0 0 -.03277 -387.554 226.468)"><g clip-path="url(#d)"><g clip-path="url(#e)"><path fill="#100f0d" d="M12650.646 6521.768h2228.732v-1078.46h-2228.732v1078.46"/></g></g></g><g clip-path="url(#f)" transform="matrix(.03277 0 0 -.03277 -387.554 226.468)"><g clip-path="url(#g)"><path fill="#100f0d" d="M11782.408 6332.093h1348.1v-699.097h-1348.1v699.097"/></g></g><path fill="#100f0d" d="M103.075 22.57L103 21.375c-.007-.156-.007-.351-.014-.568h-.023c-.052.18-.112.419-.171.606l-.367 1.129h-.419l-.366-1.16c-.037-.156-.097-.395-.142-.575h-.023c0 .187-.007.382-.014.568l-.075 1.197h-.389l.15-2.034h.605l.351.995c.045.156.083.306.135.515h.008c.052-.187.097-.359.141-.508l.352-1.002h.583l.157 2.034h-.404zm-2.197-2.033v.336h-.65v1.698h-.405v-1.698h-.65v-.336h1.705" stroke-width=".033"/></g></svg>